<svg width="33" height="33" viewBox="0 0 33 33" fill="none" xmlns="http://www.w3.org/2000/svg">
<path d="M14.7997 4.12219C15.069 4.08375 15.3281 3.99264 15.5622 3.85406C15.7963 3.71548 16.0008 3.53216 16.1641 3.31455C16.3273 3.09693 16.4461 2.8493 16.5136 2.58579C16.5812 2.32227 16.5962 2.04804 16.5577 1.77873C16.5193 1.50943 16.4282 1.25034 16.2896 1.01625C16.151 0.782159 15.9676 0.577656 15.75 0.414416C15.5324 0.251176 15.2848 0.132396 15.0212 0.0648579C14.7577 -0.00268024 14.4835 -0.0176538 14.2142 0.020792C11.1692 0.458908 8.3063 1.73575 5.94582 3.70842C3.58534 5.68108 1.82045 8.27172 0.848685 11.1904C-0.123078 14.109 -0.263368 17.2405 0.443516 20.2344C1.1504 23.2282 2.67656 25.9663 4.85119 28.1421C7.02582 30.3179 9.7631 31.8456 12.7567 32.5543C15.7502 33.2629 18.8819 33.1244 21.8013 32.1544C24.7206 31.1844 27.3124 29.4211 29.2866 27.0619C31.2607 24.7027 32.5393 21.8406 32.9792 18.7961C33.0568 18.2522 32.9152 17.6998 32.5856 17.2603C32.2559 16.8208 31.7651 16.5303 31.2212 16.4526C30.6773 16.375 30.1248 16.5166 29.6853 16.8463C29.2458 17.1759 28.9553 17.6667 28.8776 18.2106C28.547 20.4937 27.5875 22.6397 26.1066 24.4086C24.6258 26.1775 22.6818 27.4995 20.4924 28.2266C18.303 28.9537 15.9544 29.0572 13.7095 28.5256C11.4646 27.994 9.41184 26.8483 7.78102 25.2166C6.15019 23.5848 5.0056 21.5315 4.4753 19.2864C3.94501 17.0412 4.04994 14.6928 4.77834 12.5039C5.50675 10.315 6.8299 8.37196 8.59974 6.89217C10.3696 5.41238 12.5163 4.45148 14.7997 4.12219ZM22.0997 0.796883C21.5814 0.613758 21.0116 0.644004 20.5157 0.880969C20.0197 1.11793 19.6382 1.5422 19.4551 2.06045C19.2719 2.57869 19.3022 3.14845 19.5391 3.64439C19.7761 4.14033 20.2004 4.52183 20.7187 4.70495C21.5528 4.99955 22.3409 5.37517 23.0829 5.8318C23.3146 5.98271 23.5742 6.08571 23.8463 6.13473C24.1184 6.18376 24.3976 6.17781 24.6674 6.11724C24.9371 6.05667 25.1921 5.94271 25.4171 5.78207C25.6422 5.62144 25.8328 5.41737 25.9777 5.18191C26.1226 4.94646 26.219 4.68437 26.261 4.4111C26.303 4.13782 26.2899 3.8589 26.2225 3.59077C26.155 3.32264 26.0346 3.07073 25.8682 2.84988C25.7019 2.62903 25.493 2.44372 25.2539 2.30487C24.2586 1.6924 23.2013 1.18693 22.0997 0.796883ZM30.7033 7.75684C30.5645 7.51775 30.3791 7.30887 30.1583 7.14252C29.9374 6.97618 29.6855 6.85573 29.4174 6.78827C29.1492 6.72082 28.8703 6.70772 28.597 6.74976C28.3237 6.7918 28.0616 6.88812 27.8261 7.03305C27.5907 7.17798 27.3866 7.36857 27.226 7.59361C27.0653 7.81864 26.9514 8.07355 26.8908 8.34333C26.8302 8.6131 26.8243 8.89226 26.8733 9.16437C26.9223 9.43647 27.0253 9.69601 27.1762 9.92768C27.631 10.6642 28.0048 11.4467 28.2976 12.2753C28.4872 12.7847 28.8693 13.1991 29.3617 13.4293C29.8541 13.6595 30.4172 13.6869 30.9296 13.5057C31.442 13.3245 31.8627 12.9492 32.101 12.4607C32.3392 11.9722 32.3759 11.4096 32.2031 10.8943C31.8146 9.7988 31.3119 8.74718 30.7033 7.75684ZM16.5757 10.2122C16.5757 9.66278 16.3574 9.13591 15.9689 8.74744C15.5805 8.35898 15.0536 8.14074 14.5042 8.14074C13.9548 8.14074 13.4279 8.35898 13.0394 8.74744C12.6509 9.13591 12.4327 9.66278 12.4327 10.2122V18.4978C12.4327 19.6412 13.3607 20.5692 14.5042 20.5692H20.0282C20.5776 20.5692 21.1045 20.351 21.4929 19.9625C21.8814 19.5741 22.0997 19.0472 22.0997 18.4978C22.0997 17.9484 21.8814 17.4216 21.4929 17.0331C21.1045 16.6446 20.5776 16.4264 20.0282 16.4264H16.5757V10.2122Z" fill="white"/>
</svg>
