<svg width="21" height="21" viewBox="0 0 21 21" fill="none" xmlns="http://www.w3.org/2000/svg">
<path d="M3.20553 18.0525C2.20267 17.0839 1.40276 15.9253 0.852461 14.6443C0.302167 13.3632 0.0125115 11.9854 0.000396446 10.5912C-0.0117186 9.19706 0.253949 7.81442 0.781898 6.52401C1.30985 5.2336 2.08951 4.06125 3.07538 3.07538C4.06125 2.08951 5.2336 1.30985 6.52401 0.781898C7.81442 0.253949 9.19706 -0.0117186 10.5912 0.000396446C11.9854 0.0125115 13.3632 0.302167 14.6443 0.852461C15.9253 1.40276 17.0839 2.20267 18.0525 3.20553C19.9652 5.18585 21.0235 7.83817 20.9996 10.5912C20.9757 13.3443 19.8714 15.9778 17.9246 17.9246C15.9778 19.8714 13.3443 20.9757 10.5912 20.9996C7.83817 21.0235 5.18585 19.9652 3.20553 18.0525ZM16.572 16.572C18.1482 14.9958 19.0337 12.8581 19.0337 10.629C19.0337 8.39997 18.1482 6.26221 16.572 4.68603C14.9958 3.10984 12.8581 2.22435 10.629 2.22435C8.39997 2.22435 6.26221 3.10984 4.68603 4.68603C3.10984 6.26221 2.22435 8.39997 2.22435 10.629C2.22435 12.8581 3.10984 14.9958 4.68603 16.572C6.26221 18.1482 8.39997 19.0337 10.629 19.0337C12.8581 19.0337 14.9958 18.1482 16.572 16.572ZM9.57903 5.37903H11.679V11.679H9.57903V5.37903ZM9.57903 13.779H11.679V15.879H9.57903V13.779Z" fill="white"/>
</svg>
